<svg xmlns="http://www.w3.org/2000/svg" viewBox="0 0 24 24" fill="none" stroke="currentColor" stroke-width="2" stroke-linecap="round" stroke-linejoin="round" class="lucide lucide-plane"><path d="M17.8 19.2 16 11l3.5-3.5C21 6 21.5 4 21 3c-1-.5-3 0-4.5 1.5L13 8 4.8 6.2c-.5-.1-.9.2-1.1.5l-1.3 1.3c-.4.4-.3 1.2.2 1.4l5.5 3.2 2.2 2.2-3.2 5.5c-.2.5-.9.6-1.4.2l-1.3-1.3c-.3-.2-.6-.6-.5-1.1L6.2 13 8 21.2c.1.5.5.9 1 .9h.2c.5-.1.8-.4.9-.9l1.8-8.2 2.2 2.2-8.2 1.8c-.5.1-.8.4-.9.9v.2c0 .5.4.9.9 1l8.2-1.8z"/></svg>
